<svg xmlns="http://www.w3.org/2000/svg" viewBox="0 0 128.6 101.82" height="62px"><defs><style>.cls-1{fill:#f86809;}.cls-2{fill:#d9cf08;}.cls-3{fill:#94f800;}.cls-4{fill:#fff466;stroke:#d9cf08;stroke-miterlimit:10;stroke-width:3px;}.cls-5{fill:#d98a08;}</style></defs><title>logo-frutas</title><g id="Capa_2" data-name="Capa 2"><g id="Layer_1" data-name="Layer 1"><g id="Caqui"><path class="cls-1" d="M31.59,37C16.1,43.34,8.43,79.6,25.25,92.87,41,105.28,72.34,93,76.43,76.74,81.26,57.56,48.77,30.06,31.59,37Z"/><path class="cls-2" d="M30.55,36.68c-3.7-.87-8.14-12.89-2.91-21.32,4.39-7.07,17.2-8.16,16.1-8C37.1,8,36.61,38.1,30.55,36.68Z"/><path class="cls-2" d="M29,36.82c.14-3.8-8-7.07-17.46-4.25C3.56,34.93-1.09,47.4.22,46.39,5.53,42.35,28.77,43,29,36.82Z"/></g><g id="Palta"><path class="cls-3" d="M128.56,32.5c.73-15.23-9-25.65-24.3-22.41a.46.46,0,0,1-.32-.16,10.91,10.91,0,0,1-3.44-4.79c0-2.42-.18-4.26-.49-4.62L99.56,0l-.63.2c-.7.22-.76.92-.81,1.54a9.91,9.91,0,0,0,.35,3.63c0,4-.43,10-1.68,12.44a1,1,0,1,0,1.79.9c1-2,1.56-5.89,1.8-9.62a19.79,19.79,0,0,0,1.41,1.52,3.35,3.35,0,0,0,1.61.87.82.82,0,0,1,.54.53C107.37,22.81,116.47,29.56,128.56,32.5Z"/><path class="cls-4" d="M89.37,21.86a11.21,11.21,0,0,1,14.67.7c22.32,21.52,27.45,80.11-13.59,77.69C44.9,97.57,64.15,41.52,89.37,21.86Z"/><path class="cls-5" d="M85.61,60.59a11.81,11.81,0,0,1,16.48,1.67c7.82,9.74,4.77,27-10.91,25.28C73.3,85.63,75.18,68.75,85.61,60.59Z"/></g></g></g></svg>